<svg width="180" height="180" viewBox="0 0 180 180" fill="none" xmlns="http://www.w3.org/2000/svg">
<path d="M33.75 118.125V112.5H22.5V118.125C22.5 128.568 26.6484 138.583 34.0327 145.967C41.4169 153.352 51.4321 157.5 61.875 157.5H78.75V146.25H61.875C54.4158 146.25 47.2621 143.287 41.9876 138.012C36.7132 132.738 33.75 125.584 33.75 118.125Z" fill="#0BB8DE"/>
<path d="M135 61.875V67.5H146.25V61.875C146.25 51.4321 142.102 41.4169 134.717 34.0327C127.333 26.6484 117.318 22.5 106.875 22.5H90V33.75H106.875C110.568 33.75 114.226 34.4775 117.638 35.8909C121.05 37.3043 124.151 39.376 126.762 41.9876C129.374 44.5993 131.446 47.6997 132.859 51.112C134.273 54.5243 135 58.1816 135 61.875Z" fill="#0BB8DE"/>
<path d="M61.875 61.875H28.125C23.6495 61.875 19.3573 63.6529 16.1926 66.8176C13.0279 69.9822 11.25 74.2745 11.25 78.75V90H22.5V78.75C22.5 77.2582 23.0926 75.8274 24.1475 74.7725C25.2024 73.7176 26.6332 73.125 28.125 73.125H61.875C63.3668 73.125 64.7976 73.7176 65.8525 74.7725C66.9074 75.8274 67.5 77.2582 67.5 78.75V90H78.75V78.75C78.75 74.2745 76.9721 69.9822 73.8074 66.8176C70.6428 63.6529 66.3505 61.875 61.875 61.875Z" fill="#0BB8DE"/>
<path d="M45 56.25C49.4501 56.25 53.8002 54.9304 57.5003 52.4581C61.2004 49.9857 64.0843 46.4717 65.7873 42.3604C67.4903 38.2491 67.9358 33.725 67.0677 29.3605C66.1995 24.9959 64.0566 20.9868 60.9099 17.8401C57.7632 14.6934 53.7541 12.5505 49.3895 11.6823C45.025 10.8142 40.501 11.2597 36.3896 12.9627C32.2783 14.6657 28.7643 17.5496 26.2919 21.2497C23.8196 24.9498 22.5 29.2999 22.5 33.75C22.5 39.7174 24.8705 45.4403 29.0901 49.6599C33.3097 53.8795 39.0326 56.25 45 56.25ZM45 22.5C47.225 22.5 49.4001 23.1598 51.2502 24.396C53.1002 25.6321 54.5422 27.3892 55.3937 29.4448C56.2451 31.5005 56.4679 33.7625 56.0338 35.9448C55.5998 38.1271 54.5283 40.1316 52.955 41.705C51.3816 43.2783 49.3771 44.3498 47.1948 44.7838C45.0125 45.2179 42.7505 44.9951 40.6948 44.1437C38.6391 43.2922 36.8821 41.8502 35.646 40.0002C34.4098 38.1501 33.75 35.975 33.75 33.75C33.75 30.7663 34.9353 27.9048 37.045 25.7951C39.1548 23.6853 42.0163 22.5 45 22.5Z" fill="#0BB8DE"/>
<path d="M151.875 140.625H118.125C113.649 140.625 109.357 142.403 106.193 145.568C103.028 148.732 101.25 153.024 101.25 157.5V168.75H112.5V157.5C112.5 156.008 113.093 154.577 114.148 153.523C115.202 152.468 116.633 151.875 118.125 151.875H151.875C153.367 151.875 154.798 152.468 155.852 153.523C156.907 154.577 157.5 156.008 157.5 157.5V168.75H168.75V157.5C168.75 153.024 166.972 148.732 163.807 145.568C160.643 142.403 156.351 140.625 151.875 140.625Z" fill="#0BB8DE"/>
<path d="M112.5 112.5C112.5 116.95 113.82 121.3 116.292 125C118.764 128.7 122.278 131.584 126.39 133.287C130.501 134.99 135.025 135.436 139.39 134.568C143.754 133.7 147.763 131.557 150.91 128.41C154.057 125.263 156.2 121.254 157.068 116.89C157.936 112.525 157.49 108.001 155.787 103.89C154.084 99.7783 151.2 96.2643 147.5 93.7919C143.8 91.3196 139.45 90 135 90C129.033 90 123.31 92.3705 119.09 96.5901C114.871 100.81 112.5 106.533 112.5 112.5ZM146.25 112.5C146.25 114.725 145.59 116.9 144.354 118.75C143.118 120.6 141.361 122.042 139.305 122.894C137.25 123.745 134.988 123.968 132.805 123.534C130.623 123.1 128.618 122.028 127.045 120.455C125.472 118.882 124.4 116.877 123.966 114.695C123.532 112.512 123.755 110.25 124.606 108.195C125.458 106.139 126.9 104.382 128.75 103.146C130.6 101.91 132.775 101.25 135 101.25C137.984 101.25 140.845 102.435 142.955 104.545C145.065 106.655 146.25 109.516 146.25 112.5Z" fill="#0BB8DE"/>
</svg>
